<?xml version="1.0" standalone="no"?>
<!DOCTYPE svg PUBLIC "-//W3C//DTD SVG 20010904//EN"
 "http://www.w3.org/TR/2001/REC-SVG-20010904/DTD/svg10.dtd">
<svg version="1.0" xmlns="http://www.w3.org/2000/svg"
 width="512.000000pt" height="512.000000pt" viewBox="0 0 512.000000 512.000000"
 preserveAspectRatio="xMidYMid meet">

<g transform="translate(0.000000,512.000000) scale(0.100000,-0.100000)"
fill="#000000" stroke="none">
<path d="M603 5111 c-58 -15 -108 -47 -138 -90 -28 -40 -30 -49 -29 -129 l1
-87 880 -2295 c484 -1262 894 -2323 912 -2358 93 -185 220 -200 303 -37 9 17
99 300 202 631 l187 601 -854 1364 c-469 751 -859 1380 -865 1398 -16 47 -15
87 4 105 13 13 19 14 38 3 13 -6 466 -505 1006 -1107 541 -602 987 -1097 992
-1099 5 -2 275 -22 600 -45 l590 -42 -6 46 c-3 25 -16 64 -29 87 -12 24 -154
180 -315 349 -161 168 -296 312 -298 319 -3 7 187 275 422 596 235 320 438
607 452 638 38 81 41 171 10 230 -28 53 -98 104 -171 126 -28 8 -875 191
-1882 406 -1823 390 -1930 411 -2012 390z"/>
</g>
</svg>
